<svg xmlns="http://www.w3.org/2000/svg" viewBox="0 0 48 48" width="48" height="48"><path d="M19 6H14a8 8 0 0 0-8 8v20a8 8 0 0 0 8 8h20a8 8 0 0 0 8-8V14a8 8 0 0 0-8-8H29" fill="none" stroke="#0E1526" stroke-width="4" stroke-linecap="round" stroke-linejoin="round"></path><path d="M24 3v21" stroke="#2E74C0" stroke-width="4" stroke-linecap="round"></path><rect x="14.5" y="15.5" width="7" height="7" rx="1.5" fill="#2E74C0"></rect><rect x="26.5" y="15.5" width="7" height="7" rx="1.5" fill="#2E74C0"></rect><rect x="14.5" y="26.5" width="7" height="7" rx="1.5" fill="#2E74C0"></rect><rect x="26.5" y="26.5" width="7" height="7" rx="1.5" fill="#2E74C0"></rect></svg>